<svg version="1.1" id="Layer_1" xmlns="http://www.w3.org/2000/svg" xmlns:xlink="http://www.w3.org/1999/xlink" x="0px" y="0px"
	 width="100%" viewBox="0 0 336 464" enable-background="new 0 0 336 464" xml:space="preserve">
<path fill="#000000" opacity="1.000000" stroke="none" 
	d="
M244.190460,428.686310 
	C239.418564,444.826721 224.316925,450.876923 212.276428,448.985443 
	C195.088837,446.285431 184.701645,434.480621 184.680618,418.170654 
	C184.646454,391.673676 184.672485,365.176605 184.666489,338.679596 
	C184.664825,331.386780 184.654068,331.386658 177.154129,331.365784 
	C176.320892,331.363464 175.476944,331.449402 174.656189,331.347595 
	C170.409760,330.820679 169.255127,332.819977 169.276718,336.856812 
	C169.411240,362.019958 169.374054,387.184296 169.312836,412.348022 
	C169.301559,416.985565 169.727539,421.629517 168.438217,426.249573 
	C164.365265,440.844391 149.736572,450.287598 134.140900,448.196930 
	C118.618088,446.116089 108.668823,434.623474 108.663658,418.697327 
	C108.650414,377.868683 108.665672,337.040039 108.639694,296.211395 
	C108.638252,293.939178 109.055176,291.575073 107.964928,289.398590 
	C105.475998,289.125183 104.696472,291.126190 103.546677,292.346954 
	C99.771790,296.354889 96.049515,300.385162 91.352837,303.377411 
	C74.513252,314.105835 52.395489,305.491913 48.156635,286.512878 
	C46.905483,280.910980 47.994320,275.664276 50.484550,270.541718 
	C66.943756,236.683914 83.635933,202.934174 99.609398,168.847992 
	C105.944832,155.328629 116.320854,149.153107 130.348007,148.976730 
	C161.505051,148.584946 192.675919,148.450912 223.828796,148.963394 
	C237.305237,149.185104 247.864227,155.258224 254.059296,168.270294 
	C270.455353,202.708481 287.343445,236.912094 303.862427,271.292328 
	C308.717560,281.397156 306.935944,291.067169 299.285980,298.987122 
	C291.317352,307.236969 281.404541,310.164948 270.047974,306.800507 
	C262.357849,304.522247 256.838715,299.265320 251.611633,293.576141 
	C249.941391,291.758209 248.254578,289.955475 246.307632,287.857300 
	C244.884308,290.055542 245.377121,292.064819 245.375595,293.924255 
	C245.341644,335.252991 245.340744,376.581726 245.364136,417.910492 
	C245.366119,421.415741 245.347229,424.896362 244.190460,428.686310 
M237.581970,175.928192 
	C234.793655,169.660690 229.690155,167.276047 223.137756,167.281357 
	C191.982635,167.306641 160.827530,167.324707 129.672409,167.342224 
	C123.803741,167.345520 119.474892,169.769409 116.860893,175.174530 
	C100.477493,209.051620 84.058823,242.911652 67.656876,276.779785 
	C65.962967,280.277496 65.144928,283.720856 68.390656,286.878448 
	C71.625664,290.025604 75.468491,290.510437 79.475632,289.002136 
	C82.291100,287.942352 84.666153,285.985992 86.669868,283.714325 
	C91.736946,277.969696 96.753387,272.180237 101.773201,266.394043 
	C105.468803,262.134247 109.126091,257.987793 110.775978,252.253677 
	C111.854439,248.505554 114.311897,245.129913 116.317093,241.683685 
	C117.230965,240.113083 118.460724,238.568253 120.635796,238.806473 
	C123.162483,239.083176 123.678520,241.287582 124.147659,243.139587 
	C125.620552,248.954163 126.336708,254.888245 126.339088,260.899597 
	C126.355110,301.384705 126.378006,341.869812 126.394554,382.354919 
	C126.399315,394.017303 126.310402,405.680420 126.416756,417.341797 
	C126.485046,424.828827 130.222885,429.287933 136.572220,429.914398 
	C144.200867,430.667023 149.994324,426.893463 151.073776,419.502655 
	C151.859390,414.123596 151.502182,408.565674 151.511398,403.087219 
	C151.555923,376.631439 151.524353,350.175476 151.582703,323.719727 
	C151.599350,316.175995 154.253357,313.668427 161.912277,313.655151 
	C171.575363,313.638428 181.238525,313.651031 190.901657,313.662170 
	C200.289276,313.672974 202.411011,315.757812 202.412430,325.039612 
	C202.416977,354.515839 202.421661,383.992065 202.380005,413.468231 
	C202.375488,416.663940 202.581146,419.804932 203.701706,422.803802 
	C205.612045,427.916382 210.966293,431.194244 216.800293,430.934906 
	C222.139740,430.697510 225.011093,428.127106 226.955032,422.230988 
	C227.875763,419.438293 227.627670,416.628296 227.629044,413.817230 
	C227.653824,363.169250 227.655807,312.521301 227.648773,261.873322 
	C227.647934,255.859573 228.495056,249.949753 229.766403,244.097931 
	C230.188049,242.157135 230.745834,240.049255 233.160629,239.655045 
	C235.503464,239.272598 236.940186,240.898514 237.982574,242.599472 
	C239.630203,245.288101 241.317825,248.028015 242.425461,250.959015 
	C248.059372,265.867371 260.228973,275.597412 270.725464,286.571350 
	C274.970215,291.009186 280.762360,290.785645 284.825684,287.584747 
	C288.582672,284.625183 288.769470,281.669617 285.563904,275.058350 
	C269.654297,242.245605 253.737503,209.436356 237.581970,175.928192 
z"/>
<path fill="#000000" opacity="1.000000" stroke="none" 
	d="
M219.268768,59.787132 
	C232.385513,77.477715 234.853622,96.371025 225.835953,115.960541 
	C216.819122,135.548233 200.405106,145.700562 179.209106,146.808105 
	C149.908615,148.339096 126.042641,126.031754 123.545555,99.746643 
	C120.870338,71.586533 136.988464,47.756081 163.873459,41.406300 
	C185.719925,36.246532 204.203644,42.661152 219.268768,59.787132 
M200.988174,119.508141 
	C212.144119,108.585838 216.101044,95.598381 210.439941,80.874519 
	C204.899460,66.464417 193.686890,58.840202 178.252228,58.062130 
	C151.129868,56.694874 132.857101,85.108147 145.173279,109.278801 
	C155.747223,130.030273 181.144379,134.937576 200.988174,119.508141 
z"/>
</svg>