<svg version="1.1" id="Layer_1" xmlns="http://www.w3.org/2000/svg" xmlns:xlink="http://www.w3.org/1999/xlink" x="0px" y="0px"
	 viewBox="0 0 256 256" enable-background="new 0 0 256 256" xml:space="preserve">
<path fill="#0000" opacity="1.000000" stroke="#00006b" stroke-width="5" 
	d="
M1.000000,249.000000 
	C1.000000,247.285645 1.000000,245.571289 1.337886,243.353226 
	C4.399965,239.054535 7.845210,235.582367 9.715518,231.405075 
	C15.746325,217.935318 18.999540,203.708115 20.143103,188.947327 
	C20.368977,186.031815 19.928043,184.100311 18.386589,181.629288 
	C12.539870,172.256668 7.282330,162.558533 4.849736,151.592712 
	C3.761104,146.685303 2.294872,141.861664 1.000000,137.000000 
	C1.000000,127.979103 1.000000,118.958214 1.391428,109.324844 
	C2.186121,106.312149 2.577953,103.909943 2.994446,101.512024 
	C6.618518,80.646660 16.806026,63.068737 30.904074,47.754150 
	C42.446125,35.216129 56.495655,26.025291 72.040840,18.898247 
	C86.927597,12.073076 102.613869,8.567863 118.684624,7.181043 
	C131.773376,6.051554 144.891205,7.250865 157.902283,9.893646 
	C174.174805,13.198885 189.212509,19.345190 203.183716,28.079863 
	C214.903458,35.406933 225.458893,44.288216 233.769882,55.402962 
	C241.677612,65.978394 248.594849,77.205330 252.033203,90.188850 
	C253.693420,96.458008 255.344666,102.729546 257.000000,109.000000 
	C257.000000,118.020897 257.000000,127.041786 256.608734,136.674957 
	C253.519287,160.024094 243.515640,179.394485 228.295258,196.084732 
	C215.907547,209.668747 201.036575,219.872284 184.006790,227.094696 
	C170.216721,232.943100 155.892639,236.712891 141.126465,237.820801 
	C120.807571,239.345291 100.753128,237.156281 81.363686,230.153381 
	C78.883018,229.257446 75.242325,229.652985 72.814400,230.836136 
	C53.917118,240.044983 33.945820,245.863129 13.427068,249.819199 
	C9.516550,250.573166 4.846857,253.180313 1.000000,249.000000 
M85.998566,120.812805 
	C85.666405,119.749825 85.372391,118.673119 84.995842,117.626091 
	C82.674385,111.171196 75.928459,106.063057 69.672134,106.000023 
	C62.829948,105.931091 56.155643,110.454987 54.011627,116.803612 
	C51.809639,123.323906 52.645649,129.299194 57.767529,134.258194 
	C62.962841,139.288300 69.183487,140.622635 75.637772,137.639328 
	C82.180679,134.615067 86.060326,129.267136 85.998566,120.812805 
M176.982758,111.529205 
	C170.550079,118.346664 170.359787,125.836403 176.123093,132.672745 
	C182.589478,140.343018 192.308548,141.274750 199.773758,134.723785 
	C206.494476,128.826141 206.937225,118.172989 200.749008,111.257729 
	C194.563141,104.345078 184.405106,104.231560 176.982758,111.529205 
M133.277847,106.996117 
	C129.195663,104.766685 125.410156,106.406242 121.754601,108.085022 
	C115.579369,110.920944 112.306335,117.268570 112.737045,123.504623 
	C113.283981,131.423584 118.914558,137.216110 126.011414,138.937958 
	C131.876144,140.360855 139.689438,136.751633 142.905411,131.299286 
	C147.472565,123.556152 146.310089,111.747475 133.277847,106.996117 
z"/>
<path fill="#0000" opacity="1.000000" stroke="none" 
	d="
M257.000000,108.531342 
	C255.344666,102.729546 253.693420,96.458008 252.033203,90.188850 
	C248.594849,77.205330 241.677612,65.978394 233.769882,55.402962 
	C225.458893,44.288216 214.903458,35.406933 203.183716,28.079863 
	C189.212509,19.345190 174.174805,13.198885 157.902283,9.893646 
	C144.891205,7.250865 131.773376,6.051554 118.684624,7.181043 
	C102.613869,8.567863 86.927597,12.073076 72.040840,18.898247 
	C56.495655,26.025291 42.446125,35.216129 30.904074,47.754150 
	C16.806026,63.068737 6.618518,80.646660 2.994446,101.512024 
	C2.577953,103.909943 2.186121,106.312149 1.391428,108.856186 
	C1.000000,73.033394 1.000000,37.066780 1.000000,1.050085 
	C86.220772,1.050085 171.441574,1.050085 257.000000,1.050085 
	C257.000000,36.686852 257.000000,72.374763 257.000000,108.531342 
z"/>
<path fill="#0000" opacity="1.000000" stroke="none" 
	d="
M1.000000,249.494736 
	C4.846857,253.180313 9.516550,250.573166 13.427068,249.819199 
	C33.945820,245.863129 53.917118,240.044983 72.814400,230.836136 
	C75.242325,229.652985 78.883018,229.257446 81.363686,230.153381 
	C100.753128,237.156281 120.807571,239.345291 141.126465,237.820801 
	C155.892639,236.712891 170.216721,232.943100 184.006790,227.094696 
	C201.036575,219.872284 215.907547,209.668747 228.295258,196.084732 
	C243.515640,179.394485 253.519287,160.024094 256.608734,137.143616 
	C257.000000,176.948959 257.000000,216.897903 257.000000,256.923431 
	C171.666718,256.923431 86.333366,256.923431 1.000000,256.923431 
	C1.000000,254.650116 1.000000,252.319794 1.000000,249.494736 
z"/>
<path fill="#0000" opacity="1.000000" stroke="none" 
	d="
M1.000000,137.468658 
	C2.294872,141.861664 3.761104,146.685303 4.849736,151.592712 
	C7.282330,162.558533 12.539870,172.256668 18.386589,181.629288 
	C19.928043,184.100311 20.368977,186.031815 20.143103,188.947327 
	C18.999540,203.708115 15.746325,217.935318 9.715518,231.405075 
	C7.845210,235.582367 4.399965,239.054535 1.337886,242.924759 
	C1.000000,207.979111 1.000000,172.958206 1.000000,137.468658 
z"/>
<path fill="#00c5c5" opacity="1.000000" stroke="none" 
	d="
M85.999237,121.237976 
	C86.060326,129.267136 82.180679,134.615067 75.637772,137.639328 
	C69.183487,140.622635 62.962841,139.288300 57.767529,134.258194 
	C52.645649,129.299194 51.809639,123.323906 54.011627,116.803612 
	C56.155643,110.454987 62.829948,105.931091 69.672134,106.000023 
	C75.928459,106.063057 82.674385,111.171196 84.995842,117.626091 
	C85.372391,118.673119 85.666405,119.749825 85.999237,121.237976 
z"/>
<path fill="#00c5c5" opacity="1.000000" stroke="none" 
	d="
M177.243134,111.263580 
	C184.405106,104.231560 194.563141,104.345078 200.749008,111.257729 
	C206.937225,118.172989 206.494476,128.826141 199.773758,134.723785 
	C192.308548,141.274750 182.589478,140.343018 176.123093,132.672745 
	C170.359787,125.836403 170.550079,118.346664 177.243134,111.263580 
z"/>
<path fill="#00c5c5" opacity="1.000000" stroke="none" 
	d="
M133.686615,107.008469 
	C146.310089,111.747475 147.472565,123.556152 142.905411,131.299286 
	C139.689438,136.751633 131.876144,140.360855 126.011414,138.937958 
	C118.914558,137.216110 113.283981,131.423584 112.737045,123.504623 
	C112.306335,117.268570 115.579369,110.920944 121.754601,108.085022 
	C125.410156,106.406242 129.195663,104.766685 133.686615,107.008469 
z"/>
</svg>