<svg version="1.1" id="Layer_1" xmlns="http://www.w3.org/2000/svg" xmlns:xlink="http://www.w3.org/1999/xlink" x="0px" y="0px"
	 width="100%" viewBox="0 0 220 220" enable-background="new 0 0 220 220" xml:space="preserve">
<path fill="#e0f7fa" opacity="1.000000" stroke="none" 
	d="
M121.000000,221.000000 
	C80.666672,221.000000 40.833340,221.000000 1.000005,221.000000 
	C1.000004,147.666672 1.000004,74.333344 1.000002,1.000015 
	C74.333321,1.000010 147.666641,1.000010 220.999969,1.000005 
	C220.999985,74.333321 220.999985,147.666641 221.000000,220.999969 
	C187.833328,221.000000 154.666672,221.000000 121.000000,221.000000 
M104.175072,210.774872 
	C122.430275,213.439026 135.424652,205.894028 143.888702,189.899399 
	C158.337494,194.222748 171.069336,191.772949 181.454849,181.103760 
	C192.012772,170.257416 193.330734,157.115387 189.105881,143.255096 
	C215.795303,129.384003 216.855057,92.496552 187.979202,78.027641 
	C192.255539,64.060303 189.907074,51.296246 179.328720,40.852173 
	C168.539185,30.199568 155.454407,28.652454 141.317352,33.066750 
	C133.955261,20.241518 123.610947,12.544079 108.550186,12.766823 
	C93.319878,12.992074 83.073845,21.065147 76.240807,34.175423 
	C61.827366,29.827782 49.089149,32.272274 38.673988,42.896000 
	C28.063305,53.719166 26.656725,66.827797 31.039705,80.840103 
	C17.969681,88.151031 10.511761,98.621719 10.736922,113.669350 
	C10.964922,128.906631 19.180040,139.043350 32.158539,145.846954 
	C27.750368,160.357376 30.295864,173.093445 40.948574,183.442001 
	C51.770935,193.955353 64.911919,195.403473 78.903908,190.981842 
	C84.340630,201.348694 92.253922,207.973709 104.175072,210.774872 
z"/>
<path fill="#4DAA52" opacity="1.000000" stroke="none" 
	d="
M103.756599,210.665649 
	C92.253922,207.973709 84.340630,201.348694 78.903908,190.981842 
	C64.911919,195.403473 51.770935,193.955353 40.948574,183.442001 
	C30.295864,173.093445 27.750368,160.357376 32.158539,145.846954 
	C19.180040,139.043350 10.964922,128.906631 10.736922,113.669350 
	C10.511761,98.621719 17.969681,88.151031 31.039705,80.840103 
	C26.656725,66.827797 28.063305,53.719166 38.673988,42.896000 
	C49.089149,32.272274 61.827366,29.827782 76.240807,34.175423 
	C83.073845,21.065147 93.319878,12.992074 108.550186,12.766823 
	C123.610947,12.544079 133.955261,20.241518 141.317352,33.066750 
	C155.454407,28.652454 168.539185,30.199568 179.328720,40.852173 
	C189.907074,51.296246 192.255539,64.060303 187.979202,78.027641 
	C216.855057,92.496552 215.795303,129.384003 189.105881,143.255096 
	C193.330734,157.115387 192.012772,170.257416 181.454849,181.103760 
	C171.069336,191.772949 158.337494,194.222748 143.888702,189.899399 
	C135.424652,205.894028 122.430275,213.439026 103.756599,210.665649 
M123.642082,130.142151 
	C135.667007,118.131699 147.604736,106.031723 159.778442,94.174019 
	C162.806320,91.224724 163.535034,89.201759 159.921707,86.268555 
	C156.962234,83.866135 154.263916,81.070114 151.793640,78.157028 
	C149.273163,75.184769 147.344833,74.973419 144.598938,77.973618 
	C140.329193,82.638809 135.651199,86.927826 131.212234,91.441170 
	C120.603638,102.227509 110.033554,113.051712 98.400764,124.929863 
	C90.803352,116.652512 83.867584,109.096024 75.884819,100.398827 
	C71.365280,105.447083 67.749596,109.778145 63.804447,113.784790 
	C61.364994,116.262283 61.425911,117.969368 63.902069,120.383354 
	C74.519310,130.734024 85.079506,141.147583 95.447182,151.746872 
	C98.212479,154.573944 99.868668,154.029648 102.304497,151.512375 
	C109.139755,144.448624 116.181313,137.584488 123.642082,130.142151 
z"/>
<path fill="#FBFEFB" opacity="1.000000" stroke="none" 
	d="
M123.391785,130.391876 
	C116.181313,137.584488 109.139755,144.448624 102.304497,151.512375 
	C99.868668,154.029648 98.212479,154.573944 95.447182,151.746872 
	C85.079506,141.147583 74.519310,130.734024 63.902069,120.383354 
	C61.425911,117.969368 61.364994,116.262283 63.804447,113.784790 
	C67.749596,109.778145 71.365280,105.447083 75.884819,100.398827 
	C83.867584,109.096024 90.803352,116.652512 98.400764,124.929863 
	C110.033554,113.051712 120.603638,102.227509 131.212234,91.441170 
	C135.651199,86.927826 140.329193,82.638809 144.598938,77.973618 
	C147.344833,74.973419 149.273163,75.184769 151.793640,78.157028 
	C154.263916,81.070114 156.962234,83.866135 159.921707,86.268555 
	C163.535034,89.201759 162.806320,91.224724 159.778442,94.174019 
	C147.604736,106.031723 135.667007,118.131699 123.391785,130.391876 
z"/>
</svg>